<svg width="16" height="17" viewBox="0 0 16 17" fill="none" xmlns="http://www.w3.org/2000/svg">
<path fill-rule="evenodd" clip-rule="evenodd" d="M3.88499 13.5522C4.03528 13.6876 4.13905 13.7848 4.4597 14.0894C4.77376 14.3878 4.92564 14.5287 5.06452 14.6466C5.12244 14.6954 5.17182 14.8259 5.19139 15.0198C5.20748 15.1794 5.20188 15.3573 5.18237 15.5288C5.17562 15.5881 5.16911 15.6309 5.16538 15.6513C5.12351 15.8801 5.29787 16.0914 5.53045 16.0938C5.73975 16.0959 5.90102 16.0985 6.32787 16.1061C6.43467 16.108 6.43467 16.108 6.54182 16.1099C7.70211 16.1298 8.29473 16.1244 8.72004 16.0709C9.17466 16.0137 9.64286 15.4647 10.0476 14.7758C10.3905 15.3854 10.8662 15.9806 11.3466 16.058C11.4992 16.0824 11.6838 16.09 11.8978 16.085C12.0573 16.0814 12.2261 16.0709 12.3965 16.0556C12.525 16.0442 12.6273 16.0326 12.6885 16.0247C12.9144 15.9954 13.0622 15.7731 13.0019 15.5534C12.9888 15.506 12.9679 15.4189 12.9467 15.3093C12.9222 15.1823 12.9045 15.0582 12.8965 14.9451C12.8914 14.8734 12.8904 14.8085 12.8936 14.7524C12.8993 14.6547 12.901 14.5999 12.9038 14.4734C12.9048 14.4263 12.9048 14.4263 12.9062 14.3851C12.9115 14.2502 12.9296 14.1221 12.9883 13.8429C13.0134 13.7217 13.1355 13.4897 13.3278 13.2026C13.3851 13.1171 13.4477 13.0278 13.5148 12.9357C13.642 12.7609 13.7789 12.5843 13.9159 12.4153C13.9979 12.314 14.0614 12.2383 14.0967 12.1972C14.3929 11.7728 14.7088 11.078 14.8248 10.6718C14.9362 10.2814 15.0254 9.56245 15.0801 8.85578C15.1101 8.45489 15.1213 8.13173 15.1213 7.6248C15.1213 7.53589 15.1213 7.53589 15.1215 7.46246C15.1217 7.34221 15.1218 7.29672 15.1214 7.24051C15.1203 7.08693 15.1158 6.9347 15.101 6.54648C15.0691 5.73283 14.6232 5.20679 13.9661 5.10532C13.4071 5.019 12.7267 5.48328 12.7267 5.48328C12.7267 5.48328 12.5753 4.96047 12.473 4.79907C12.3068 4.53972 11.8788 4.20924 11.5517 4.14486C11.2152 4.07952 10.8163 4.08675 10.4499 4.15154C10.1291 4.20894 9.80959 4.49536 9.62475 4.80431C9.49252 5.0247 9.61689 4.79262 9.48462 4.56463C9.30157 4.25061 8.87529 3.9694 8.46938 3.88641C8.12541 3.81528 7.73136 3.84237 7.37142 3.94934C6.90838 4.08771 6.83467 4.44008 6.81626 4.33919C6.75467 4.00095 6.74898 4.02318 6.7106 3.78189C6.56802 2.88662 6.40847 2.26716 6.16654 1.72661C6.18045 1.75769 6.07793 1.52446 6.04061 1.44404C5.976 1.30479 5.91151 1.17875 5.84062 1.05752C5.62211 0.683872 5.37171 0.404112 5.05753 0.245182C4.51192 -0.0311114 3.69411 0.103352 3.30647 0.555831C2.92151 1.0055 2.85733 1.75732 2.95427 2.68767C2.9913 3.04888 3.12106 3.70833 3.23872 4.1958C3.28033 4.36498 3.31678 4.51928 3.38364 4.80431C3.39514 4.85279 3.39514 4.85279 3.40673 4.90129C3.45846 5.11701 3.50381 5.29449 3.55796 5.48925C3.55228 5.46895 3.65497 5.83334 3.67685 5.91398C3.68412 5.9409 3.68412 5.9409 3.69133 5.96793C3.73216 6.12171 3.77207 6.28753 3.83443 6.56424C3.86856 6.71639 3.90185 6.87893 3.93443 7.05123C4.02326 7.52117 4.0237 7.42331 3.93819 7.3231C3.87911 7.25387 3.82355 7.191 3.76988 7.13306C3.67011 7.02536 3.57839 6.93629 3.49132 6.86525C2.85692 6.34619 2.46819 6.11685 1.9345 6.06646C1.05909 5.98236 0.228305 6.60073 0.103387 7.43529C0.0265598 7.94699 0.0513104 8.18253 0.288023 8.63472C0.418285 8.87905 0.63863 9.17414 1.04975 9.68207C1.07491 9.71314 1.07491 9.71314 1.10005 9.74414C1.6047 10.366 1.65968 10.4351 1.77967 10.6089C2.10402 11.0796 2.89362 12.431 3.03715 12.6125L3.88499 13.5522Z" fill="black"/>
<path fill-rule="evenodd" clip-rule="evenodd" d="M1.68284 9.27154C1.65795 9.24086 1.65795 9.24086 1.63313 9.21021C1.25584 8.74407 1.04895 8.467 0.95157 8.28436C0.798753 7.99241 0.790439 7.91329 0.845512 7.54648C0.910246 7.114 1.37733 6.76634 1.86381 6.81308C2.20041 6.84486 2.49449 7.01836 3.0172 7.44603C3.0738 7.49221 3.14203 7.55847 3.22009 7.64273C3.26625 7.69257 3.31522 7.74798 3.36809 7.80993C3.4475 7.90299 3.71512 8.23045 3.6757 8.1828C3.73385 8.25272 3.77542 8.30688 3.82292 8.37325C3.91703 8.50759 3.96997 8.5822 4.04167 8.6778C4.00805 8.63293 4.2564 8.97623 4.30899 9.02643C4.58759 9.29237 4.99102 9.06839 4.96575 8.71398C4.96153 8.65482 4.94762 8.5909 4.91857 8.47931C4.8037 7.66008 4.76351 7.39713 4.67179 6.91191C4.63771 6.73167 4.60274 6.56093 4.56658 6.39972C4.50222 6.11415 4.46022 5.93965 4.41663 5.77547C4.40888 5.7464 4.40888 5.7464 4.40111 5.71764C4.3781 5.63282 4.27385 5.26293 4.2808 5.28775C4.22945 5.10307 4.18625 4.93401 4.13648 4.72641C4.12517 4.67912 4.12517 4.67912 4.11388 4.63151C4.04739 4.348 4.01 4.18975 3.96782 4.01824C3.85783 3.56256 3.73356 2.93104 3.70071 2.61056C3.62525 1.88634 3.67732 1.27637 3.87654 1.04367C4.03209 0.862104 4.47295 0.789618 4.71925 0.914347C4.88033 0.995828 5.0413 1.17566 5.19361 1.43612C5.25125 1.53469 5.30533 1.64038 5.36069 1.75969C5.39422 1.83195 5.49362 2.05806 5.48242 2.03306C5.69274 2.50298 5.83722 3.06393 5.97034 3.89978C6.00973 4.14744 6.05847 4.42801 6.12098 4.77128C6.13955 4.87307 6.13955 4.87307 6.1582 4.97442C6.4596 6.60976 6.43754 6.48582 6.44188 6.61625C6.45768 7.09203 7.15998 7.10317 7.19088 6.62814C7.20068 6.47748 7.19719 6.34297 7.1798 5.95667C7.17735 5.90202 7.17734 5.90202 7.17498 5.84757C7.15977 5.49166 7.16064 5.2869 7.18169 5.17051C7.22003 4.95828 7.41056 4.72053 7.58603 4.6681C7.83245 4.59486 8.10244 4.5763 8.31873 4.62103C8.52577 4.66336 8.76738 4.82275 8.8367 4.94165C8.92023 5.08565 8.99186 5.30503 9.04676 5.57696C9.09107 5.79644 9.12156 6.03189 9.14301 6.2832C9.14968 6.36139 9.15404 6.4218 9.16073 6.52175C9.16358 6.56358 9.16358 6.56358 9.16642 6.5981C9.16803 6.61541 9.16803 6.61541 9.17194 6.64277C9.17497 6.66195 9.17497 6.66195 9.18928 6.71051C9.19655 6.84833 9.19655 6.84833 9.75009 6.89944C9.91539 6.69961 9.9154 6.69961 9.91087 6.66458C9.93795 6.54623 9.95452 6.41431 9.97814 6.16644C9.99323 6.00531 10.0008 5.9261 10.0097 5.84394C10.0465 5.50382 10.0932 5.28772 10.1502 5.19273C10.2209 5.07454 10.47 4.90992 10.5817 4.88993C10.8623 4.84032 11.1703 4.83473 11.4082 4.88092C11.5159 4.90212 11.7787 5.10506 11.8409 5.20213C11.9687 5.40369 12.0929 6.05351 12.1629 6.69825C12.1518 6.74054 12.1518 6.74054 12.3236 6.98585C12.9139 6.91855 12.9139 6.91855 12.8973 6.81196C12.9129 6.77397 12.9253 6.73005 12.9428 6.66182C12.985 6.50212 13.013 6.40938 13.0547 6.30546C13.0835 6.23357 13.1139 6.17211 13.145 6.12318C13.2657 5.93326 13.5781 5.80422 13.8521 5.84653C14.1463 5.89197 14.3338 6.11318 14.352 6.5755C14.3665 6.95593 14.3708 7.10218 14.3718 7.24573C14.3722 7.29869 14.3722 7.34122 14.3719 7.46082C14.3717 7.53474 14.3717 7.53473 14.3717 7.6248C14.3717 8.11372 14.3612 8.41833 14.3327 8.7988C14.2821 9.45207 14.1966 10.1416 14.1041 10.4659C14.0096 10.7965 13.7276 11.4168 13.5043 11.7394C13.4885 11.7547 13.4205 11.8358 13.3336 11.943C13.189 12.1215 13.0444 12.308 12.9088 12.4943C12.8363 12.594 12.7681 12.6912 12.7051 12.7852C12.4615 13.149 12.3051 13.446 12.2545 13.6895C12.1881 14.0059 12.1643 14.1737 12.1572 14.3557C12.1555 14.4072 12.1555 14.4072 12.1544 14.4572C12.1518 14.5752 12.1503 14.6229 12.1453 14.7092C12.1401 14.7999 12.1415 14.8964 12.1488 14.9983C12.1592 15.1443 12.1488 15.3438 12.1488 15.3438C12.1488 15.3438 12.0222 15.332 11.8809 15.3352C11.7084 15.3392 11.565 15.3333 11.4658 15.3175C11.3228 15.2944 10.9365 14.811 10.7387 14.4344C10.4364 13.858 9.70262 13.886 9.40182 14.395C9.13052 14.8568 8.74217 15.3122 8.62689 15.3267C8.25228 15.3738 7.67218 15.3792 6.55513 15.36C6.44834 15.3581 6.44834 15.3581 6.34165 15.3562C5.91275 15.3486 5.92923 15.421 5.93801 15.3438C5.96308 15.1235 5.96024 15.1648 5.93801 14.9445C5.90075 14.5752 5.78676 14.274 5.54924 14.074C5.42637 13.9696 5.27941 13.8332 4.98423 13.5529C4.64701 13.2325 4.5414 13.1335 4.41124 13.0191L3.60994 12.1284C3.52198 12.0159 2.74991 10.6945 2.39745 10.183C2.26034 9.98444 2.20906 9.91999 1.68284 9.27154ZM11.1916 9.2753V12.7343C11.1916 13.2343 11.9416 13.2343 11.9416 12.7343V9.2753C11.9416 8.7753 11.1916 8.7753 11.1916 9.2753ZM9.15997 9.27472L9.17597 12.7477C9.17828 13.2477 9.92827 13.2443 9.92596 12.7443L9.90996 9.27127C9.90766 8.77127 9.15767 8.77473 9.15997 9.27472ZM7.95086 12.7283L7.92986 9.3023C7.9268 8.80231 7.17681 8.8069 7.17988 9.3069L7.20088 12.7329C7.20394 13.2329 7.95393 13.2283 7.95086 12.7283Z" fill="white"/>
</svg>
