<svg width="38" height="20" viewBox="0 0 38 20" fill="none" xmlns="http://www.w3.org/2000/svg">
<path d="M11.8198 17.6602C10.951 17.6602 10.298 17.4443 9.86084 17.0127C9.4292 16.5866 9.21338 15.9447 9.21338 15.0869V4.95166C9.21338 4.09391 9.4292 3.45199 9.86084 3.02588C10.298 2.59424 10.951 2.37842 11.8198 2.37842H26.1802C27.0545 2.37842 27.7075 2.59424 28.1392 3.02588C28.5708 3.45199 28.7866 4.09391 28.7866 4.95166V15.0869C28.7866 15.9447 28.5708 16.5866 28.1392 17.0127C27.7075 17.4443 27.0545 17.6602 26.1802 17.6602H11.8198ZM11.8364 16.3237H26.1636C26.5731 16.3237 26.8885 16.2158 27.1099 16C27.3368 15.7786 27.4502 15.4521 27.4502 15.0205V5.01807C27.4502 4.58643 27.3368 4.2627 27.1099 4.04688C26.8885 3.82552 26.5731 3.71484 26.1636 3.71484H11.8364C11.4214 3.71484 11.1032 3.82552 10.8818 4.04688C10.6605 4.2627 10.5498 4.58643 10.5498 5.01807V15.0205C10.5498 15.4521 10.6605 15.7786 10.8818 16C11.1032 16.2158 11.4214 16.3237 11.8364 16.3237ZM15.5386 16.5811V3.46582H16.8418V16.5811H15.5386ZM13.9448 6.79443H12.1602C12.0384 6.79443 11.9305 6.7474 11.8364 6.65332C11.7424 6.55371 11.6953 6.4458 11.6953 6.32959C11.6953 6.20231 11.7424 6.0944 11.8364 6.00586C11.9305 5.91178 12.0384 5.86475 12.1602 5.86475H13.9448C14.0666 5.86475 14.1745 5.91178 14.2686 6.00586C14.3682 6.0944 14.418 6.20231 14.418 6.32959C14.418 6.4458 14.3682 6.55371 14.2686 6.65332C14.1745 6.7474 14.0666 6.79443 13.9448 6.79443ZM13.9448 8.94434H12.1602C12.0384 8.94434 11.9305 8.8973 11.8364 8.80322C11.7424 8.70915 11.6953 8.59847 11.6953 8.47119C11.6953 8.34945 11.7424 8.2443 11.8364 8.15576C11.9305 8.06169 12.0384 8.01465 12.1602 8.01465H13.9448C14.0666 8.01465 14.1745 8.06169 14.2686 8.15576C14.3682 8.2443 14.418 8.34945 14.418 8.47119C14.418 8.59847 14.3682 8.70915 14.2686 8.80322C14.1745 8.8973 14.0666 8.94434 13.9448 8.94434ZM13.9448 11.0859H12.1602C12.0384 11.0859 11.9305 11.0417 11.8364 10.9531C11.7424 10.859 11.6953 10.7511 11.6953 10.6294C11.6953 10.5021 11.7424 10.3942 11.8364 10.3057C11.9305 10.2116 12.0384 10.1646 12.1602 10.1646H13.9448C14.0666 10.1646 14.1745 10.2116 14.2686 10.3057C14.3682 10.3942 14.418 10.5021 14.418 10.6294C14.418 10.7511 14.3682 10.859 14.2686 10.9531C14.1745 11.0417 14.0666 11.0859 13.9448 11.0859Z" fill="black" fill-opacity="0.5"/>
</svg>
